<svg xmlns="http://www.w3.org/2000/svg" width="17.229" height="18.798" viewBox="0 0 17.229 18.798">
  <path id="Icon_ionic-ios-moon" data-name="Icon ionic-ios-moon" d="M21.356,18.7c-.142,0-.284.01-.426.01A8.629,8.629,0,0,1,14.724,16.1a8.917,8.917,0,0,1-2.57-6.3,9.029,9.029,0,0,1,.857-3.852A12.757,12.757,0,0,1,13.676,4.8a.193.193,0,0,0-.191-.3,9.467,9.467,0,0,0,1.444,18.795,9.227,9.227,0,0,0,7.092-3.333,8.94,8.94,0,0,0,.8-1.067.2.2,0,0,0-.2-.3A8.359,8.359,0,0,1,21.356,18.7Z" transform="translate(-5.625 -4.496)" fill="#fff"/>
</svg>
