<svg id="Icon_awesome-arrow-circle-right" data-name="Icon awesome-arrow-circle-right" xmlns="http://www.w3.org/2000/svg" width="50" height="50" viewBox="0 0 50 50">
  <path id="Icon_awesome-arrow-circle-right-2" data-name="Icon awesome-arrow-circle-right" d="M25.562.563a25,25,0,1,1-25,25A25,25,0,0,1,25.562.563ZM22.649,15.038l7.611,7.3H11.853a2.414,2.414,0,0,0-2.419,2.419v1.613a2.414,2.414,0,0,0,2.419,2.419H30.26l-7.611,7.3a2.422,2.422,0,0,0-.04,3.458l1.109,1.1a2.409,2.409,0,0,0,3.417,0L40.512,27.276a2.409,2.409,0,0,0,0-3.417L27.135,10.472a2.409,2.409,0,0,0-3.417,0l-1.109,1.1a2.434,2.434,0,0,0,.04,3.468Z" transform="translate(-0.563 -0.563)" fill="#fff"/>
</svg>
