<?xml version="1.0" encoding="UTF-8"?><svg id="Layer_1" xmlns="http://www.w3.org/2000/svg" viewBox="0 0 284.15 416.75"><defs><style>.cls-1{fill:#ab46a4;}</style></defs><path class="cls-1" d="M75.77,0c-20.82,0-37.89,17.06-37.89,37.89V181.89C16.5,186.43,0,204.61,0,227.32v37.89c0,23.64,13.09,47.16,28.42,68.37,14.32,19.82,30.72,36.98,42.62,48.99v24.72c0,4.96,4.51,9.47,9.47,9.47H241.53c4.96,0,9.47-4.52,9.47-9.47v-48.84c20.45-21.99,33.15-51.34,33.15-83.76v-61.57c0-20.83-17.06-37.89-37.89-37.89-7.3,0-13.73,2.6-19.54,6.21-1.73-19.26-17.61-34.63-37.29-34.63-7.3,0-13.73,2.6-19.54,6.21-1.73-19.26-17.61-34.63-37.29-34.63-7.04,0-13.28,2.39-18.95,5.77V37.89C113.66,17.06,96.6,0,75.78,0h0Zm0,18.95c10.66,0,18.95,8.29,18.95,18.94v118.39c0,5.23,4.24,9.47,9.47,9.47s9.47-4.24,9.47-9.47c0-10.66,8.29-18.94,18.95-18.94s18.94,8.29,18.94,18.94v28.42c0,5.23,4.24,9.47,9.47,9.47s9.47-4.24,9.47-9.47c0-10.66,8.28-18.95,18.94-18.95s18.95,8.29,18.95,18.95v28.41c0,5.23,4.24,9.47,9.47,9.47s9.47-4.24,9.47-9.47c0-10.66,8.29-18.95,18.94-18.95s18.95,8.29,18.95,18.95v61.57c0,28.95-11.52,54.88-30.34,73.7-1.79,1.77-2.83,4.29-2.81,6.81v42.62H89.98v-18.94c.02-2.52-1.02-5.04-2.81-6.81-11.7-11.71-29.09-29.82-43.36-49.58-14.28-19.76-24.86-41.16-24.86-57.27v-37.89c0-12.57,7.81-22.96,18.94-26.79v55.2c-.07,5,4.47,9.62,9.47,9.62s9.54-4.62,9.47-9.62V37.88c0-10.66,8.29-18.94,18.94-18.94h0Z"/></svg>