<svg xmlns="http://www.w3.org/2000/svg" width="20" height="20" viewBox="0 0 20 20">
  <g id="Group_293" data-name="Group 293" transform="translate(-0.16)">
    <path id="Polygon_4" data-name="Polygon 4" d="M5.866,1.763h0L1.9,7.513H9.828L5.866,1.763m0-1a.993.993,0,0,1,.823.433l3.962,5.751a1,1,0,0,1-.823,1.567H1.9A1,1,0,0,1,1.08,6.946L5.042,1.2A.993.993,0,0,1,5.866.763Z" transform="translate(14.213 4.301) rotate(90)" fill="#fff"/>
    <path id="Line_348" data-name="Line 348" d="M0,8.411a.5.5,0,0,1-.5-.5V0A.5.5,0,0,1,0-.5.5.5,0,0,1,.5,0V7.911A.5.5,0,0,1,0,8.411Z" transform="translate(14.213 6.215)" fill="#fff"/>
    <path id="Ellipse_272" data-name="Ellipse 272" d="M10,1a9,9,0,1,0,9,9,9.01,9.01,0,0,0-9-9m0-1A10,10,0,1,1,0,10,10,10,0,0,1,10,0Z" transform="translate(0.16)" fill="#fff"/>
  </g>
</svg>
