<svg xmlns="http://www.w3.org/2000/svg" width="19.977" height="19.977" viewBox="0 0 19.977 19.977">
  <g id="Icon_feather-pause-circle" data-name="Icon feather-pause-circle" transform="translate(0.5 0.5)">
    <path id="Path_345" data-name="Path 345" d="M12.488,22.477a9.988,9.988,0,1,1,9.988-9.988A10,10,0,0,1,12.488,22.477Zm0-18.977a8.988,8.988,0,1,0,8.988,8.988A9,9,0,0,0,12.488,3.5Z" transform="translate(-3 -3)" fill="#fff"/>
    <path id="Path_346" data-name="Path 346" d="M15,19.693a.5.5,0,0,1-.5-.5V13.5a.5.5,0,0,1,1,0v5.693A.5.5,0,0,1,15,19.693Z" transform="translate(-7.409 -6.858)" fill="#fff"/>
    <path id="Path_347" data-name="Path 347" d="M21,19.693a.5.5,0,0,1-.5-.5V13.5a.5.5,0,0,1,1,0v5.693A.5.5,0,0,1,21,19.693Z" transform="translate(-9.614 -6.858)" fill="#fff"/>
  </g>
</svg>
