<svg xmlns="http://www.w3.org/2000/svg" width="19.977" height="19.977" viewBox="0 0 19.977 19.977">
  <g id="Icon_feather-play-circle" data-name="Icon feather-play-circle" transform="translate(0.5 0.5)">
    <path id="Path_343" data-name="Path 343" d="M12.488,22.477a9.988,9.988,0,1,1,9.988-9.988A10,10,0,0,1,12.488,22.477Zm0-18.977a8.988,8.988,0,1,0,8.988,8.988A9,9,0,0,0,12.488,3.5Z" transform="translate(-3 -3)" fill="#fff"/>
    <path id="Path_344" data-name="Path 344" d="M15,11.5a.5.5,0,0,1,.277.084l5.693,3.8a.5.5,0,0,1,0,.832l-5.693,3.8a.5.5,0,0,1-.777-.416V12a.5.5,0,0,1,.5-.5Zm4.792,4.3L15.5,12.934v5.722Z" transform="translate(-7.409 -6.307)" fill="#fff"/>
  </g>
</svg>
