<svg xmlns="http://www.w3.org/2000/svg" width="50" height="50" viewBox="0 0 50 50">
  <path id="Icon_awesome-plus" data-name="Icon awesome-plus" d="M46.429,21.893H30.357V5.821A3.572,3.572,0,0,0,26.786,2.25H23.214a3.572,3.572,0,0,0-3.571,3.571V21.893H3.571A3.572,3.572,0,0,0,0,25.464v3.571a3.572,3.572,0,0,0,3.571,3.571H19.643V48.679a3.572,3.572,0,0,0,3.571,3.571h3.571a3.572,3.572,0,0,0,3.571-3.571V32.607H46.429A3.572,3.572,0,0,0,50,29.036V25.464A3.572,3.572,0,0,0,46.429,21.893Z" transform="translate(0 -2.25)" fill="#489aa2"/>
</svg>
