<?xml version="1.0" encoding="UTF-8"?><svg id="Layer_1" xmlns="http://www.w3.org/2000/svg" viewBox="0 0 364.48 355.18"><defs><style>.cls-1{fill:#fff;}</style></defs><path class="cls-1" d="M364.47,63.27c-.71,5.51-5.4,9.63-10.95,9.62h-1.48l-34.41-4.52c24.7,31.67,37.93,70.77,37.55,110.92-.38,40.16-14.37,79-39.67,110.18-25.3,31.18-60.42,52.88-99.64,61.53-39.21,8.66-80.2,3.77-116.28-13.87-36.07-17.64-65.11-46.98-82.36-83.24S-4.48,176.59,4.59,137.47c9.07-39.12,31.14-74.01,62.59-98.98C98.63,13.53,137.62-.04,177.77,0,183.9,0,188.87,4.97,188.87,11.1s-4.97,11.1-11.1,11.1c-47.37-.02-92.16,21.57-121.66,58.63C26.61,117.9,15.64,166.4,26.29,212.55s41.78,84.93,84.55,105.31c42.76,20.38,92.48,20.15,135.05-.64,42.57-20.79,73.33-59.85,83.55-106.1s-1.21-94.64-31.05-131.43l-1.85,42.92h0c-.27,5.9-5.12,10.55-11.02,10.58h-.52c-2.95-.09-5.73-1.37-7.72-3.54-1.99-2.17-3.02-5.05-2.86-8l2.96-68.89c-.04-.17-.04-.35,0-.52-.04-.37-.04-.74,0-1.11v-1.55h0c-.03-.14-.03-.3,0-.44,.19-.46,.41-.9,.66-1.33,.3-.5,.65-.97,1.04-1.41,.66-.77,1.44-1.45,2.29-2,.49-.34,1.01-.64,1.55-.89l1.48-.52h4.37l65.04,8.66h0c2.96,.12,5.75,1.41,7.75,3.59,2,2.18,3.05,5.07,2.91,8.03h0Z"/></svg>