<svg xmlns="http://www.w3.org/2000/svg" width="17.792" height="17.792" viewBox="0 0 17.792 17.792">
  <g id="Icon_feather-save" data-name="Icon feather-save" transform="translate(0.5 0.5)">
    <path id="Path_348" data-name="Path 348" d="M19.426,21.792H6.366A2.368,2.368,0,0,1,4,19.426V6.366A2.368,2.368,0,0,1,6.366,4H16.627a.5.5,0,0,1,.354.146l4.664,4.664a.5.5,0,0,1,.146.354V19.426A2.368,2.368,0,0,1,19.426,21.792ZM6.366,5A1.367,1.367,0,0,0,5,6.366v13.06a1.367,1.367,0,0,0,1.366,1.366h13.06a1.367,1.367,0,0,0,1.366-1.366V9.372L16.42,5Z" transform="translate(-4.5 -4.5)" fill="#fff"/>
    <path id="Path_349" data-name="Path 349" d="M19.829,27.463a.5.5,0,0,1-.5-.5V20H11v6.963a.5.5,0,0,1-1,0V19.5a.5.5,0,0,1,.5-.5h9.329a.5.5,0,0,1,.5.5v7.463A.5.5,0,0,1,19.829,27.463Z" transform="translate(-6.768 -10.171)" fill="#fff"/>
    <path id="Path_350" data-name="Path 350" d="M17.963,9.664H10.5a.5.5,0,0,1-.5-.5V4.5a.5.5,0,0,1,1,0V8.664h6.963a.5.5,0,0,1,0,1Z" transform="translate(-6.768 -4.5)" fill="#fff"/>
  </g>
</svg>
