<svg xmlns="http://www.w3.org/2000/svg" width="14.433" height="17.792" viewBox="0 0 14.433 17.792">
  <g id="Icon_feather-share" data-name="Icon feather-share" transform="translate(0.5 0.5)">
    <path id="Path_351" data-name="Path 351" d="M17.754,26.9H7.679A2.182,2.182,0,0,1,5.5,24.717V18a.5.5,0,0,1,1,0v6.717A1.181,1.181,0,0,0,7.679,25.9H17.754a1.181,1.181,0,0,0,1.179-1.179V18a.5.5,0,0,1,1,0v6.717A2.182,2.182,0,0,1,17.754,26.9Z" transform="translate(-6 -9.604)" fill="#fff"/>
    <path id="Path_352" data-name="Path 352" d="M18.717,6.858a.5.5,0,0,1-.354-.146l-3-3-3,3A.5.5,0,0,1,11.646,6L15,2.646a.5.5,0,0,1,.707,0L19.07,6a.5.5,0,0,1-.354.854Z" transform="translate(-8.642 -3)" fill="#fff"/>
    <path id="Path_353" data-name="Path 353" d="M18,14.415a.5.5,0,0,1-.5-.5V3a.5.5,0,0,1,1,0V13.915A.5.5,0,0,1,18,14.415Z" transform="translate(-11.283 -3)" fill="#fff"/>
  </g>
</svg>
