<?xml version="1.0" encoding="UTF-8"?><svg id="Layer_1" xmlns="http://www.w3.org/2000/svg" viewBox="0 0 225.86 134.9"><defs><style>.cls-1{fill:#fff;stroke:#a8499b;stroke-miterlimit:10;stroke-width:.25px;}</style></defs><polygon class="cls-1" points="1.12 45.19 1.57 45.97 2.02 46.75 1.12 46.75 .22 46.75 .67 45.97 1.12 45.19"/><polygon class="cls-1" points="2.93 42.2 3.38 42.98 3.83 43.76 2.93 43.76 2.02 43.76 2.48 42.98 2.93 42.2"/><polygon class="cls-1" points="2.4 38.37 2.86 39.15 3.31 39.93 2.4 39.93 1.5 39.93 1.95 39.15 2.4 38.37"/><polygon class="cls-1" points="15.31 51.02 15.76 51.8 16.21 52.58 15.31 52.58 14.4 52.58 14.85 51.8 15.31 51.02"/><polygon class="cls-1" points="20.56 62.57 21.01 63.35 21.46 64.13 20.56 64.13 19.65 64.13 20.1 63.35 20.56 62.57"/><polygon class="cls-1" points="25.97 55.93 26.42 56.72 26.87 57.5 25.97 57.5 25.06 57.5 25.51 56.72 25.97 55.93"/><polygon class="cls-1" points="12.06 62.57 12.51 63.35 12.96 64.13 12.06 64.13 11.15 64.13 11.6 63.35 12.06 62.57"/><polygon class="cls-1" points="5.92 77.89 6.37 78.68 6.82 79.46 5.92 79.46 5.02 79.46 5.47 78.68 5.92 77.89"/><polygon class="cls-1" points="7.73 74.9 8.18 75.69 8.63 76.47 7.73 76.47 6.82 76.47 7.28 75.69 7.73 74.9"/><polygon class="cls-1" points="15.6 64.13 16.05 64.92 16.5 65.7 15.6 65.7 14.7 65.7 15.15 64.92 15.6 64.13"/><polygon class="cls-1" points="33.2 74.12 33.65 74.9 34.1 75.69 33.2 75.69 32.29 75.69 32.75 74.9 33.2 74.12"/><polygon class="cls-1" points="30.49 95.84 30.94 96.62 31.39 97.4 30.49 97.4 29.58 97.4 30.03 96.62 30.49 95.84"/><polygon class="cls-1" points="22.36 89.05 22.82 89.83 23.27 90.62 22.36 90.62 21.46 90.62 21.91 89.83 22.36 89.05"/><polygon class="cls-1" points="25.06 99.34 25.51 100.12 25.97 100.91 25.06 100.91 24.16 100.91 24.61 100.12 25.06 99.34"/><polygon class="cls-1" points="17.85 37.96 18.29 37.17 18.73 36.38 19.19 37.16 19.65 37.93 18.75 37.94 17.85 37.96"/><polygon class="cls-1" points="12.34 47.56 12.78 46.77 13.22 45.98 13.69 46.75 14.15 47.53 13.25 47.54 12.34 47.56"/><polygon class="cls-1" points="24.47 46.17 24.91 45.38 25.35 44.59 25.81 45.36 26.28 46.14 25.37 46.15 24.47 46.17"/><polygon class="cls-1" points="194.95 112.13 195.4 111.34 195.84 110.55 196.3 111.33 196.76 112.1 195.86 112.12 194.95 112.13"/><polygon class="cls-1" points="201.88 55.78 200.99 55.76 200.11 55.74 200.57 54.98 201.02 54.23 201.45 55 201.88 55.78"/><polygon class="cls-1" points="208.7 73.88 207.81 73.86 206.93 73.84 207.39 73.09 207.85 72.33 208.27 73.11 208.7 73.88"/><polygon class="cls-1" points="206.93 60.31 206.05 60.29 205.16 60.27 205.62 59.52 206.08 58.76 206.5 59.54 206.93 60.31"/><polygon class="cls-1" points="220.9 102.86 220.02 102.84 219.14 102.82 219.59 102.07 220.05 101.31 220.48 102.09 220.9 102.86"/><polygon class="cls-1" points="217.63 45.79 216.75 45.77 215.87 45.75 216.32 44.99 216.78 44.24 217.21 45.01 217.63 45.79"/><polygon class="cls-1" points="199.05 57.17 198.17 57.15 197.29 57.13 197.74 56.37 198.2 55.62 198.63 56.39 199.05 57.17"/><polygon class="cls-1" points="196.45 50.42 195.57 50.4 194.68 50.38 195.14 49.62 195.6 48.87 196.03 49.64 196.45 50.42"/><polygon class="cls-1" points="212.88 27.57 211.99 27.55 211.11 27.53 211.57 26.78 212.03 26.02 212.45 26.8 212.88 27.57"/><polygon class="cls-1" points="190.76 38.01 189.87 37.99 188.99 37.97 189.45 37.21 189.91 36.45 190.33 37.23 190.76 38.01"/><polygon class="cls-1" points="193.34 52.58 192.46 52.57 191.58 52.55 192.04 51.79 192.49 51.03 192.92 51.81 193.34 52.58"/><polygon class="cls-1" points="225.64 23.82 224.76 23.8 223.88 23.78 224.33 23.03 224.79 22.27 225.22 23.05 225.64 23.82"/><polygon class="cls-1" points="181.1 34.84 180.22 34.82 179.33 34.8 179.79 34.04 180.25 33.29 180.67 34.06 181.1 34.84"/><polygon class="cls-1" points="191.41 44.24 190.52 44.22 189.64 44.2 190.1 43.44 190.56 42.69 190.98 43.46 191.41 44.24"/><polygon class="cls-1" points="152.32 2.58 151.44 2.56 150.55 2.54 151.01 1.78 151.47 1.03 151.9 1.8 152.32 2.58"/><polygon class="cls-1" points="205.17 28.19 205.61 28.96 206.05 29.73 205.16 29.73 204.28 29.72 204.72 28.96 205.17 28.19"/><polygon class="cls-1" points="199.49 64.47 199.92 65.24 200.36 66.01 199.47 66 198.59 66 199.04 65.23 199.49 64.47"/><polygon class="cls-1" points="220.03 45.79 220.47 46.56 220.9 47.33 220.02 47.32 219.14 47.31 219.58 46.55 220.03 45.79"/><polygon class="cls-1" points="201.89 92.19 202.32 92.96 202.76 93.73 201.88 93.73 200.99 93.72 201.44 92.96 201.89 92.19"/><polygon class="cls-1" points="195.87 74.79 196.31 75.56 196.74 76.33 195.86 76.32 194.97 76.31 195.42 75.55 195.87 74.79"/><polygon class="cls-1" points="187.01 78.23 187.45 79 187.88 79.77 187 79.77 186.11 79.76 186.56 79 187.01 78.23"/><polygon class="cls-1" points="197.7 109.78 198.13 110.55 198.57 111.32 197.68 111.31 196.8 111.31 197.25 110.55 197.7 109.78"/><polygon class="cls-1" points="207.83 75.56 208.26 76.33 208.7 77.09 207.81 77.09 206.93 77.08 207.38 76.32 207.83 75.56"/><polygon class="cls-1" points="198.12 92.96 198.55 93.73 198.99 94.5 198.11 94.5 197.22 94.49 197.67 93.73 198.12 92.96"/><polygon class="cls-1" points="185.19 85.64 185.62 86.41 186.06 87.18 185.17 87.17 184.29 87.16 184.74 86.4 185.19 85.64"/><polygon class="cls-1" points="42.6 1.8 41.72 1.78 40.83 1.76 41.29 1.01 41.75 .25 42.18 1.03 42.6 1.8"/><polygon class="cls-1" points="48.79 29.96 47.9 29.94 47.02 29.92 47.48 29.17 47.94 28.41 48.36 29.19 48.79 29.96"/><polygon class="cls-1" points="44.38 28.32 43.5 28.3 42.61 28.29 43.07 27.53 43.53 26.77 43.96 27.55 44.38 28.32"/><polygon class="cls-1" points="33.69 36.4 34.13 37.17 34.56 37.94 33.68 37.93 32.79 37.92 33.24 37.16 33.69 36.4"/><polygon class="cls-1" points="15.32 13.63 15.75 14.4 16.19 15.17 15.31 15.16 14.42 15.16 14.87 14.4 15.32 13.63"/><polygon class="cls-1" points="34.54 41.02 34.97 41.79 35.41 42.56 34.53 42.55 33.64 42.55 34.09 41.78 34.54 41.02"/><polygon class="cls-1" points="2.93 125.46 3.38 126.24 3.83 127.02 2.93 127.02 2.02 127.02 2.48 126.24 2.93 125.46"/><polygon class="cls-1" points="31.39 134.77 31.83 133.98 32.27 133.19 32.73 133.97 33.2 134.75 32.29 134.76 31.39 134.77"/><polygon class="cls-1" points="32.62 111.48 33.06 110.69 33.5 109.91 33.96 110.68 34.42 111.46 33.52 111.47 32.62 111.48"/><polygon class="cls-1" points="29.59 113.9 30.04 113.11 30.48 112.32 30.94 113.09 31.4 113.87 30.5 113.88 29.59 113.9"/><polygon class="cls-1" points="45.7 104 44.82 103.98 43.93 103.96 44.39 103.21 44.85 102.45 45.28 103.23 45.7 104"/><polygon class="cls-1" points="41.73 109.67 42.17 110.44 42.6 111.21 41.72 111.2 40.83 111.19 41.28 110.43 41.73 109.67"/><polygon class="cls-1" points="42.58 114.29 43.01 115.06 43.45 115.83 42.57 115.82 41.68 115.81 42.13 115.05 42.58 114.29"/></svg>